<svg xmlns="http://www.w3.org/2000/svg" xmlns:xlink="http://www.w3.org/1999/xlink" contentStyleType="text/css" data-diagram-type="CLASS" height="508px" preserveAspectRatio="none" style="width:525px;height:508px;background:#FFFFFF;" version="1.1" viewBox="0 0 525 508" width="525px" zoomAndPan="magnify"><defs/><g><!--class User--><g class="entity" data-entity="User" data-source-line="2" data-uid="ent0002" id="entity_User"><rect fill="#F1F1F1" height="130.4414" rx="2.5" ry="2.5" style="stroke:#181818;stroke-width:0.5;" width="139.5723" x="190.1" y="7"/><ellipse cx="240.4535" cy="23" fill="#ADD1B2" rx="11" ry="11" style="stroke:#181818;stroke-width:1;"/><path d="M242.9267,29.1431 Q242.3456,29.4419 241.7064,29.5913 Q241.0673,29.7407 240.3617,29.7407 Q237.8549,29.7407 236.5351,28.0889 Q235.2152,26.437 235.2152,23.3159 Q235.2152,20.1865 236.5351,18.5347 Q237.8549,16.8828 240.3617,16.8828 Q241.0673,16.8828 241.7147,17.0322 Q242.3622,17.1816 242.9267,17.4805 L242.9267,20.2031 Q242.2958,19.6221 241.7023,19.3523 Q241.1088,19.0825 240.4779,19.0825 Q239.1332,19.0825 238.4484,20.1492 Q237.7636,21.2158 237.7636,23.3159 Q237.7636,25.4077 238.4484,26.4744 Q239.1332,27.541 240.4779,27.541 Q241.1088,27.541 241.7023,27.2712 Q242.2958,27.0015 242.9267,26.4204 Z " fill="#000000"/><text fill="#000000" font-family="sans-serif" font-size="14" lengthAdjust="spacing" textLength="30.3652" x="260.9535" y="28.291">User</text><line style="stroke:#181818;stroke-width:0.5;" x1="191.1" x2="328.6723" y1="39" y2="39"/><ellipse cx="201.1" cy="52.7441" fill="none" rx="3" ry="3" style="stroke:#038048;stroke-width:1;"/><text fill="#000000" font-family="sans-serif" font-size="14" lengthAdjust="spacing" textLength="91.0273" x="210.1" y="56.5352">userId: String</text><ellipse cx="201.1" cy="69.2324" fill="none" rx="3" ry="3" style="stroke:#038048;stroke-width:1;"/><text fill="#000000" font-family="sans-serif" font-size="14" lengthAdjust="spacing" textLength="86.1191" x="210.1" y="73.0234">name: String</text><ellipse cx="201.1" cy="85.7207" fill="none" rx="3" ry="3" style="stroke:#038048;stroke-width:1;"/><text fill="#000000" font-family="sans-serif" font-size="14" lengthAdjust="spacing" textLength="85.5244" x="210.1" y="89.5117">email: String</text><ellipse cx="201.1" cy="102.209" fill="none" rx="3" ry="3" style="stroke:#038048;stroke-width:1;"/><text fill="#000000" font-family="sans-serif" font-size="14" lengthAdjust="spacing" textLength="113.5723" x="210.1" y="106">password: String</text><ellipse cx="201.1" cy="118.6973" fill="none" rx="3" ry="3" style="stroke:#038048;stroke-width:1;"/><text fill="#000000" font-family="sans-serif" font-size="14" lengthAdjust="spacing" textLength="75.0039" x="210.1" y="122.4883">role: String</text><line style="stroke:#181818;stroke-width:0.5;" x1="191.1" x2="328.6723" y1="129.4414" y2="129.4414"/></g><!--class Product--><g class="entity" data-entity="Product" data-source-line="10" data-uid="ent0003" id="entity_Product"><rect fill="#F1F1F1" height="146.9297" rx="2.5" ry="2.5" style="stroke:#181818;stroke-width:0.5;" width="150.9063" x="181.44" y="197.45"/><ellipse cx="226.6563" cy="213.45" fill="#ADD1B2" rx="11" ry="11" style="stroke:#181818;stroke-width:1;"/><path d="M229.1295,219.5931 Q228.5484,219.8919 227.9092,220.0413 Q227.2701,220.1907 226.5645,220.1907 Q224.0577,220.1907 222.7379,218.5389 Q221.418,216.887 221.418,213.7659 Q221.418,210.6365 222.7379,208.9847 Q224.0577,207.3328 226.5645,207.3328 Q227.2701,207.3328 227.9175,207.4822 Q228.565,207.6316 229.1295,207.9305 L229.1295,210.6531 Q228.4986,210.0721 227.9051,209.8023 Q227.3116,209.5325 226.6807,209.5325 Q225.336,209.5325 224.6512,210.5992 Q223.9664,211.6658 223.9664,213.7659 Q223.9664,215.8577 224.6512,216.9244 Q225.336,217.991 226.6807,217.991 Q227.3116,217.991 227.9051,217.7212 Q228.4986,217.4515 229.1295,216.8704 Z " fill="#000000"/><text fill="#000000" font-family="sans-serif" font-size="14" lengthAdjust="spacing" textLength="51.9736" x="247.1563" y="218.741">Product</text><line style="stroke:#181818;stroke-width:0.5;" x1="182.44" x2="331.3463" y1="229.45" y2="229.45"/><ellipse cx="192.44" cy="243.1941" fill="none" rx="3" ry="3" style="stroke:#038048;stroke-width:1;"/><text fill="#000000" font-family="sans-serif" font-size="14" lengthAdjust="spacing" textLength="114.7207" x="201.44" y="246.9852">productId: String</text><ellipse cx="192.44" cy="259.6824" fill="none" rx="3" ry="3" style="stroke:#038048;stroke-width:1;"/><text fill="#000000" font-family="sans-serif" font-size="14" lengthAdjust="spacing" textLength="86.1191" x="201.44" y="263.4734">name: String</text><ellipse cx="192.44" cy="276.1707" fill="none" rx="3" ry="3" style="stroke:#038048;stroke-width:1;"/><text fill="#000000" font-family="sans-serif" font-size="14" lengthAdjust="spacing" textLength="124.9063" x="201.44" y="279.9617">description: String</text><ellipse cx="192.44" cy="292.659" fill="none" rx="3" ry="3" style="stroke:#038048;stroke-width:1;"/><text fill="#000000" font-family="sans-serif" font-size="14" lengthAdjust="spacing" textLength="96.8584" x="201.44" y="296.45">price: Number</text><ellipse cx="192.44" cy="309.1473" fill="none" rx="3" ry="3" style="stroke:#038048;stroke-width:1;"/><text fill="#000000" font-family="sans-serif" font-size="14" lengthAdjust="spacing" textLength="90.207" x="201.44" y="312.9383">image: String</text><ellipse cx="192.44" cy="325.6355" fill="none" rx="3" ry="3" style="stroke:#038048;stroke-width:1;"/><text fill="#000000" font-family="sans-serif" font-size="14" lengthAdjust="spacing" textLength="99.627" x="201.44" y="329.4266">stock: Number</text><line style="stroke:#181818;stroke-width:0.5;" x1="182.44" x2="331.3463" y1="336.3797" y2="336.3797"/></g><!--class Cart--><g class="entity" data-entity="Cart" data-source-line="19" data-uid="ent0004" id="entity_Cart"><rect fill="#F1F1F1" height="97.4648" rx="2.5" ry="2.5" style="stroke:#181818;stroke-width:0.5;" width="139.7773" x="7" y="222.18"/><ellipse cx="58.4473" cy="238.18" fill="#ADD1B2" rx="11" ry="11" style="stroke:#181818;stroke-width:1;"/><path d="M60.9204,244.3231 Q60.3394,244.6219 59.7002,244.7713 Q59.061,244.9207 58.3555,244.9207 Q55.8486,244.9207 54.5288,243.2689 Q53.209,241.617 53.209,238.4959 Q53.209,235.3665 54.5288,233.7147 Q55.8486,232.0628 58.3555,232.0628 Q59.061,232.0628 59.7085,232.2122 Q60.356,232.3616 60.9204,232.6605 L60.9204,235.3831 Q60.2896,234.8021 59.696,234.5323 Q59.1025,234.2625 58.4717,234.2625 Q57.127,234.2625 56.4421,235.3292 Q55.7573,236.3958 55.7573,238.4959 Q55.7573,240.5877 56.4421,241.6544 Q57.127,242.721 58.4717,242.721 Q59.1025,242.721 59.696,242.4512 Q60.2896,242.1815 60.9204,241.6004 Z " fill="#000000"/><text fill="#000000" font-family="sans-serif" font-size="14" lengthAdjust="spacing" textLength="28.3828" x="78.9473" y="243.471">Cart</text><line style="stroke:#181818;stroke-width:0.5;" x1="8" x2="145.7773" y1="254.18" y2="254.18"/><ellipse cx="18" cy="267.9241" fill="none" rx="3" ry="3" style="stroke:#038048;stroke-width:1;"/><text fill="#000000" font-family="sans-serif" font-size="14" lengthAdjust="spacing" textLength="87.541" x="27" y="271.7152">cartId: String</text><ellipse cx="18" cy="284.4124" fill="none" rx="3" ry="3" style="stroke:#038048;stroke-width:1;"/><text fill="#000000" font-family="sans-serif" font-size="14" lengthAdjust="spacing" textLength="91.0273" x="27" y="288.2034">userId: String</text><ellipse cx="18" cy="300.9007" fill="none" rx="3" ry="3" style="stroke:#038048;stroke-width:1;"/><text fill="#000000" font-family="sans-serif" font-size="14" lengthAdjust="spacing" textLength="113.7773" x="27" y="304.6917">items: [CartItem]</text><line style="stroke:#181818;stroke-width:0.5;" x1="8" x2="145.7773" y1="311.6448" y2="311.6448"/></g><!--class CartItem--><g class="entity" data-entity="CartItem" data-source-line="25" data-uid="ent0005" id="entity_CartItem"><rect fill="#F1F1F1" height="80.9766" rx="2.5" ry="2.5" style="stroke:#181818;stroke-width:0.5;" width="145.0547" x="94.36" y="412.62"/><ellipse cx="133.8995" cy="428.62" fill="#ADD1B2" rx="11" ry="11" style="stroke:#181818;stroke-width:1;"/><path d="M136.3726,434.7631 Q135.7916,435.0619 135.1524,435.2113 Q134.5133,435.3607 133.8077,435.3607 Q131.3009,435.3607 129.981,433.7089 Q128.6612,432.057 128.6612,428.9359 Q128.6612,425.8065 129.981,424.1547 Q131.3009,422.5028 133.8077,422.5028 Q134.5133,422.5028 135.1607,422.6522 Q135.8082,422.8016 136.3726,423.1005 L136.3726,425.8231 Q135.7418,425.2421 135.1483,424.9723 Q134.5548,424.7025 133.9239,424.7025 Q132.5792,424.7025 131.8944,425.7692 Q131.2096,426.8358 131.2096,428.9359 Q131.2096,431.0277 131.8944,432.0944 Q132.5792,433.161 133.9239,433.161 Q134.5548,433.161 135.1483,432.8912 Q135.7418,432.6215 136.3726,432.0404 Z " fill="#000000"/><text fill="#000000" font-family="sans-serif" font-size="14" lengthAdjust="spacing" textLength="58.5225" x="153.3527" y="433.911">CartItem</text><line style="stroke:#181818;stroke-width:0.5;" x1="95.36" x2="238.4147" y1="444.62" y2="444.62"/><ellipse cx="105.36" cy="458.3641" fill="none" rx="3" ry="3" style="stroke:#038048;stroke-width:1;"/><text fill="#000000" font-family="sans-serif" font-size="14" lengthAdjust="spacing" textLength="114.7207" x="114.36" y="462.1552">productId: String</text><ellipse cx="105.36" cy="474.8524" fill="none" rx="3" ry="3" style="stroke:#038048;stroke-width:1;"/><text fill="#000000" font-family="sans-serif" font-size="14" lengthAdjust="spacing" textLength="119.0547" x="114.36" y="478.6434">quantity: Number</text><line style="stroke:#181818;stroke-width:0.5;" x1="95.36" x2="238.4147" y1="485.5966" y2="485.5966"/></g><!--class Order--><g class="entity" data-entity="Order" data-source-line="30" data-uid="ent0006" id="entity_Order"><rect fill="#F1F1F1" height="146.9297" rx="2.5" ry="2.5" style="stroke:#181818;stroke-width:0.5;" width="150.3389" x="367.72" y="197.45"/><ellipse cx="419.1673" cy="213.45" fill="#ADD1B2" rx="11" ry="11" style="stroke:#181818;stroke-width:1;"/><path d="M421.6404,219.5931 Q421.0594,219.8919 420.4202,220.0413 Q419.781,220.1907 419.0755,220.1907 Q416.5686,220.1907 415.2488,218.5389 Q413.929,216.887 413.929,213.7659 Q413.929,210.6365 415.2488,208.9847 Q416.5686,207.3328 419.0755,207.3328 Q419.781,207.3328 420.4285,207.4822 Q421.076,207.6316 421.6404,207.9305 L421.6404,210.6531 Q421.0096,210.0721 420.416,209.8023 Q419.8225,209.5325 419.1917,209.5325 Q417.847,209.5325 417.1621,210.5992 Q416.4773,211.6658 416.4773,213.7659 Q416.4773,215.8577 417.1621,216.9244 Q417.847,217.991 419.1917,217.991 Q419.8225,217.991 420.416,217.7212 Q421.0096,217.4515 421.6404,216.8704 Z " fill="#000000"/><text fill="#000000" font-family="sans-serif" font-size="14" lengthAdjust="spacing" textLength="38.9443" x="439.6673" y="218.741">Order</text><line style="stroke:#181818;stroke-width:0.5;" x1="368.72" x2="517.0589" y1="229.45" y2="229.45"/><ellipse cx="378.72" cy="243.1941" fill="none" rx="3" ry="3" style="stroke:#038048;stroke-width:1;"/><text fill="#000000" font-family="sans-serif" font-size="14" lengthAdjust="spacing" textLength="98.3418" x="387.72" y="246.9852">orderId: String</text><ellipse cx="378.72" cy="259.6824" fill="none" rx="3" ry="3" style="stroke:#038048;stroke-width:1;"/><text fill="#000000" font-family="sans-serif" font-size="14" lengthAdjust="spacing" textLength="91.0273" x="387.72" y="263.4734">userId: String</text><ellipse cx="378.72" cy="276.1707" fill="none" rx="3" ry="3" style="stroke:#038048;stroke-width:1;"/><text fill="#000000" font-family="sans-serif" font-size="14" lengthAdjust="spacing" textLength="124.3389" x="387.72" y="279.9617">items: [OrderItem]</text><ellipse cx="378.72" cy="292.659" fill="none" rx="3" ry="3" style="stroke:#038048;stroke-width:1;"/><text fill="#000000" font-family="sans-serif" font-size="14" lengthAdjust="spacing" textLength="94.1514" x="387.72" y="296.45">total: Number</text><ellipse cx="378.72" cy="309.1473" fill="none" rx="3" ry="3" style="stroke:#038048;stroke-width:1;"/><text fill="#000000" font-family="sans-serif" font-size="14" lengthAdjust="spacing" textLength="89.9951" x="387.72" y="312.9383">status: String</text><ellipse cx="378.72" cy="325.6355" fill="none" rx="3" ry="3" style="stroke:#038048;stroke-width:1;"/><text fill="#000000" font-family="sans-serif" font-size="14" lengthAdjust="spacing" textLength="69.6924" x="387.72" y="329.4266">date: Date</text><line style="stroke:#181818;stroke-width:0.5;" x1="368.72" x2="517.0589" y1="336.3797" y2="336.3797"/></g><!--class OrderItem--><g class="entity" data-entity="OrderItem" data-source-line="39" data-uid="ent0007" id="entity_OrderItem"><rect fill="#F1F1F1" height="97.4648" rx="2.5" ry="2.5" style="stroke:#181818;stroke-width:0.5;" width="145.0547" x="322.36" y="404.38"/><ellipse cx="357.1468" cy="420.38" fill="#ADD1B2" rx="11" ry="11" style="stroke:#181818;stroke-width:1;"/><path d="M359.62,426.5231 Q359.0389,426.8219 358.3997,426.9713 Q357.7606,427.1207 357.055,427.1207 Q354.5482,427.1207 353.2284,425.4689 Q351.9085,423.817 351.9085,420.6959 Q351.9085,417.5665 353.2284,415.9147 Q354.5482,414.2628 357.055,414.2628 Q357.7606,414.2628 358.408,414.4122 Q359.0555,414.5616 359.62,414.8605 L359.62,417.5831 Q358.9891,417.0021 358.3956,416.7323 Q357.8021,416.4625 357.1712,416.4625 Q355.8265,416.4625 355.1417,417.5292 Q354.4569,418.5958 354.4569,420.6959 Q354.4569,422.7877 355.1417,423.8544 Q355.8265,424.921 357.1712,424.921 Q357.8021,424.921 358.3956,424.6512 Q358.9891,424.3815 359.62,423.8004 Z " fill="#000000"/><text fill="#000000" font-family="sans-serif" font-size="14" lengthAdjust="spacing" textLength="69.084" x="375.5439" y="425.671">OrderItem</text><line style="stroke:#181818;stroke-width:0.5;" x1="323.36" x2="466.4147" y1="436.38" y2="436.38"/><ellipse cx="333.36" cy="450.1241" fill="none" rx="3" ry="3" style="stroke:#038048;stroke-width:1;"/><text fill="#000000" font-family="sans-serif" font-size="14" lengthAdjust="spacing" textLength="114.7207" x="342.36" y="453.9152">productId: String</text><ellipse cx="333.36" cy="466.6124" fill="none" rx="3" ry="3" style="stroke:#038048;stroke-width:1;"/><text fill="#000000" font-family="sans-serif" font-size="14" lengthAdjust="spacing" textLength="119.0547" x="342.36" y="470.4034">quantity: Number</text><ellipse cx="333.36" cy="483.1007" fill="none" rx="3" ry="3" style="stroke:#038048;stroke-width:1;"/><text fill="#000000" font-family="sans-serif" font-size="14" lengthAdjust="spacing" textLength="96.8584" x="342.36" y="486.8917">price: Number</text><line style="stroke:#181818;stroke-width:0.5;" x1="323.36" x2="466.4147" y1="493.8448" y2="493.8448"/></g><!--link User to Cart--><g class="link" data-entity-1="User" data-entity-2="Cart" data-source-line="45" data-uid="lnk8" id="link_User_Cart"><path codeLine="45" d="M199.71,137.9 C174.3,165.22 145.21,196.48 121.72,221.72" fill="none" id="User-Cart" style="stroke:#181818;stroke-width:1;"/><text fill="#000000" font-family="sans-serif" font-size="13" lengthAdjust="spacing" textLength="8.2202" x="185.1032" y="158.031">1</text><text fill="#000000" font-family="sans-serif" font-size="13" lengthAdjust="spacing" textLength="6.2651" x="121.6212" y="211.3378">*</text></g><!--link User to Order--><g class="link" data-entity-1="User" data-entity-2="Order" data-source-line="46" data-uid="lnk9" id="link_User_Order"><path codeLine="46" d="M320.06,137.9 C337.67,156.82 357.03,177.63 375.08,197.03" fill="none" id="User-Order" style="stroke:#181818;stroke-width:1;"/><text fill="#000000" font-family="sans-serif" font-size="13" lengthAdjust="spacing" textLength="8.2202" x="317.8643" y="158.031">1</text><text fill="#000000" font-family="sans-serif" font-size="13" lengthAdjust="spacing" textLength="6.2651" x="362.1227" y="186.6023">*</text></g><!--link Cart to CartItem--><g class="link" data-entity-1="Cart" data-entity-2="CartItem" data-source-line="47" data-uid="lnk10" id="link_Cart_CartItem"><path codeLine="47" d="M100.77,319.73 C115.2,348.61 133.37,384.99 147.01,412.3" fill="none" id="Cart-CartItem" style="stroke:#181818;stroke-width:1;"/><text fill="#000000" font-family="sans-serif" font-size="13" lengthAdjust="spacing" textLength="8.2202" x="95.5813" y="340.2399">1</text><text fill="#000000" font-family="sans-serif" font-size="13" lengthAdjust="spacing" textLength="6.2651" x="137.2429" y="401.893">*</text></g><!--link Order to OrderItem--><g class="link" data-entity-1="Order" data-entity-2="OrderItem" data-source-line="48" data-uid="lnk11" id="link_Order_OrderItem"><path codeLine="48" d="M423.5,344.68 C418.2,364.61 412.57,385.71 407.73,403.89" fill="none" id="Order-OrderItem" style="stroke:#181818;stroke-width:1;"/><text fill="#000000" font-family="sans-serif" font-size="13" lengthAdjust="spacing" textLength="8.2202" x="413.2812" y="365.0087">1</text><text fill="#000000" font-family="sans-serif" font-size="13" lengthAdjust="spacing" textLength="6.2651" x="403.1328" y="393.5036">*</text></g><!--link Product to CartItem--><g class="link" data-entity-1="Product" data-entity-2="CartItem" data-source-line="49" data-uid="lnk12" id="link_Product_CartItem"><path codeLine="49" d="M220.54,344.68 C209.03,367.74 196.73,392.36 186.82,412.21" fill="none" id="Product-CartItem" style="stroke:#181818;stroke-width:1;"/><text fill="#000000" font-family="sans-serif" font-size="13" lengthAdjust="spacing" textLength="8.2202" x="208.7043" y="365.0087">1</text><text fill="#000000" font-family="sans-serif" font-size="13" lengthAdjust="spacing" textLength="6.2651" x="183.6464" y="401.7881">*</text></g><!--link Product to OrderItem--><g class="link" data-entity-1="Product" data-entity-2="OrderItem" data-source-line="50" data-uid="lnk13" id="link_Product_OrderItem"><path codeLine="50" d="M312.62,344.68 C327.88,364.61 344.04,385.71 357.96,403.89" fill="none" id="Product-OrderItem" style="stroke:#181818;stroke-width:1;"/><text fill="#000000" font-family="sans-serif" font-size="13" lengthAdjust="spacing" textLength="8.2202" x="309.5607" y="365.0087">1</text><text fill="#000000" font-family="sans-serif" font-size="13" lengthAdjust="spacing" textLength="6.2651" x="346.3639" y="393.5036">*</text></g><!--SRC=[bLAnRi8m4Dtz5LR68eQkMSl2GYjLdQeEXsCX2piEvxCgXFXtpWw4E46eNQppyxrxxvwiB8GWlu96UH9IBY9NwwQMduIctIMa1QV7T-t0s37GyOHVZmK9lRsJpaAeBFE1lecAUgMklpmNQtHGQ3eolYqaqIZksqItrPW0us1N40DvjHyw1WTlW5TvnLMfFL_Ta7QXbj-9jURwfnoKe2Ux72AqPEWuT_6EpIrldyg_-iYytWYZv0diE8H0G34KyG5nAYi-9-B_jJxBdCVbJrEzLdAvbDLBbIEPWLbDvDWdhSc2w9EOzkUdssTvH7lmTYTU0000]--></g></svg>